PathFileType	3	(X/Y/Z)	D:\Jess\PFP\Labelled\PA07\20250627\SRRun01.trc
DataRate	CameraRate	NumFrames	NumMarkers	Units	OrigDataRate	OrigDataStartFrame	OrigNumFrames
250.0	250.0	5	37	mm	250.0	35625	2501
Frame#	Time	C7			T10			CLAV			LSHO			RSHO			LASIS			RASIS			LPSIS			RPSIS			LILCR			RILCR			LGTR			LTHI			LLTHI			LLEP			LMEP			LPSH			LLSH			LDSH			LLMAL			LMMAL			LTOE			L5TH			LHEE			RGTR			RTHI			RLTHI			RLEP			RMEP			RPSH			RLSH			RDSH			RLMAL			RMMAL			RTOE			R5TH			RHEE			
		X1	Y1	Z1	X2	Y2	Z2	X3	Y3	Z3	X4	Y4	Z4	X5	Y5	Z5	X6	Y6	Z6	X7	Y7	Z7	X8	Y8	Z8	X9	Y9	Z9	X10	Y10	Z10	X11	Y11	Z11	X12	Y12	Z12	X13	Y13	Z13	X14	Y14	Z14	X15	Y15	Z15	X16	Y16	Z16	X17	Y17	Z17	X18	Y18	Z18	X19	Y19	Z19	X20	Y20	Z20	X21	Y21	Z21	X22	Y22	Z22	X23	Y23	Z23	X24	Y24	Z24	X25	Y25	Z25	X26	Y26	Z26	X27	Y27	Z27	X28	Y28	Z28	X29	Y29	Z29	X30	Y30	Z30	X31	Y31	Z31	X32	Y32	Z32	X33	Y33	Z33	X34	Y34	Z34	X35	Y35	Z35	X36	Y36	Z36	X37	Y37	Z37	

626	142.496	807.2389635786168	1410.249674136187	-811.9307608620293	828.576736944876	1157.580867157536	-755.8599229331305	813.8916434799813	1296.756840640962	-951.3820392293501	639.8381010178969	1379.934273080876	-865.1291965008462	967.220753902246	1387.098304334428	-874.0618156336257	709.1436216174593	922.3933236765199	-878.1318271160665	916.313417302449	911.3002343142555	-908.1171127012817	816.6861317825709	981.2237208821173	-736.4601080422071	858.5256949549807	977.0855270605169	-740.1422740771347	673.3017618378892	985.4226045117575	-839.8522052536206	980.0968541947346	994.6712914789275	-846.0678825311411	655.1497789884638	815.8301390866756	-801.968684164063	734.286122430784	652.5542430350639	-871.9559924884452	683.0029824343169	605.7336432788262	-782.3875276034463	698.8324783094034	476.2625035775603	-743.437611691272	nan	nan	nan	766.5167711766438	367.7616404442443	-751.1973139202543	710.5428046469156	295.7948560594283	-640.0759396704331	779.7482169902886	212.9567015044944	-652.2566499464416	757.7038733754612	134.3325227251763	-560.8630220677055	nan	nan	nan	775.1151632268692	60.04897241364036	-688.8459059117613	735.9042506812052	40.80640067485296	-660.9776225298507	813.6763075375038	130.1989043153198	-477.7948734596463	993.2259185469073	801.9485928092286	-852.4281613566809	905.7203568067491	687.9715379509737	-987.0887472636481	961.6659853530927	602.8730814316374	-936.3935986363869	937.2212811417385	491.8921795141798	-946.1141878534186	nan	nan	nan	897.138831606874	391.0615257193334	-941.0484402214086	956.2324594603248	370.817606073767	-803.1999700677126	907.5242414086628	280.9082346096199	-773.6247233584238	940.6403368576457	252.7595083446552	-668.3793821589526	nan	nan	nan	937.7849511025843	118.2248150538596	-729.3115322938036	975.3212343143583	112.7518392476646	-692.7944746795546	886.8372117230543	293.2000795273053	-598.2288633146081	
627	142.5	807.0739299230722	1413.209439516965	-812.2354483745167	827.6768095692463	1160.150420463007	-756.114050464848	814.8127759364927	1299.686213926353	-951.6577895832796	640.468466200132	1383.340851208034	-866.5235175661164	967.3927158824642	1389.750656372851	-873.3888915163019	708.9305998178327	924.3296679701868	-878.1887442015444	915.9345900580809	914.5913152999919	-908.2383883556432	816.486056121468	983.9678155851977	-736.7505338665898	858.3760580764376	980.0411064641547	-740.302286673228	673.3422898001457	987.8360493483011	-840.9355471037691	980.0105282552457	998.0436995198246	-846.2418099489871	655.4089123653597	817.9954858399228	-800.811455759103	735.1640223149677	653.9124300109758	-867.7919140308994	683.0072326831449	608.6092092511776	-777.4544653592036	698.4308505020773	479.9528413705086	-735.4624354406475	nan	nan	nan	765.8146640185334	371.1321646322426	-742.5836212431624	710.0351678628274	299.6082233148884	-631.1298933242804	778.9425739321302	216.2673685337832	-643.784032492742	757.1678443623057	137.6924132511781	-552.1914986631257	nan	nan	nan	774.8892580065026	60.23722521843757	-678.6676749237557	735.7608223056634	41.12798973090967	-650.4113291896505	813.1105518042233	135.141609573708	-469.4956396210675	993.6446260099576	806.0996252186475	-853.6076624180114	905.7576697306018	693.1497135492851	-988.2876479911567	961.9879616276583	607.3264457013921	-938.7027596700835	937.3881716334487	496.0395666535144	-949.1642133977027	nan	nan	nan	897.4751438932899	394.8569133374851	-946.7038355057107	956.4294657815045	370.3252565045314	-809.3954719001152	907.5498778988366	279.5270662129099	-782.6294536498639	940.5285677663553	247.9525986823079	-678.197155720872	nan	nan	nan	937.5281284100713	115.548668463811	-743.7169942504274	975.0288800413128	108.7612391084472	-707.3893453575253	886.777644411476	286.0648801715707	-606.6697238547091	
628	142.504	806.9509152406132	1416.177099018493	-812.5797765332005	826.7787526981137	1162.728378414172	-756.3929594318896	815.7176827923712	1302.634362949607	-951.9254355560926	641.1272771139409	1386.754305472513	-867.8638686688444	967.5670354655962	1392.39708228042	-872.8264064553227	708.7393235677187	926.281576888405	-878.3456340007463	915.5852464246195	917.9037074245457	-908.4059262938608	816.298178952688	986.7484231430299	-737.1023168390822	858.2343474277711	983.037578576034	-740.5268860533527	673.4104470641398	990.3227564027809	-842.0623740817052	979.9400685269168	1001.487831664467	-846.4575099883803	655.6505674057775	820.2306355138948	-799.724551939491	735.8075410413373	655.337386310685	-863.7153762722247	682.9111690335714	611.6183647965022	-772.5823065251208	697.9807890733177	483.8385553804125	-727.6001567488765	nan	nan	nan	765.0152543033568	374.6956996481967	-734.1614273957126	709.480632639138	303.6062207815996	-622.34730958359	778.0468667895718	219.7379288903084	-635.5383157918116	756.5721623095993	141.2101461773786	-543.7636465423919	nan	nan	nan	774.6236853790322	60.47837514909911	-668.6186337137744	735.5944140505973	41.51089189632253	-639.9504499204176	812.4866982426003	140.3221340953651	-461.4904908971924	994.0635506517668	810.3042823322362	-854.7543126987946	905.7664887066455	698.3130869954031	-989.3861203610624	962.3054550479441	611.7733011751423	-940.8362118470308	937.5850808340105	500.1110314935887	-951.9227131599724	nan	nan	nan	897.8455104181685	398.6218242941074	-952.1213501590069	956.6320314784705	369.68800747235	-815.489315588888	907.5553278726201	278.0947339111723	-791.6396563297327	940.3504649702237	243.046521865471	-688.1445709496393	nan	nan	nan	937.2530744050207	112.9487360094882	-758.2413104264564	974.6972280107032	104.8348504225522	-722.1274443567303	886.6015444719095	278.7539851688584	-615.3250017018785	
629	142.508	806.8652887088952	1419.137485342491	-812.9636354329541	825.8871011851581	1165.301767310211	-756.6934882916944	816.6057472386344	1305.583340517684	-952.1830586300001	641.8124701721555	1390.154398810291	-869.1579836451526	967.7435684076349	1395.025409016635	-872.3676795275308	708.574483767729	928.2329178606874	-878.6028484375623	915.2740462268686	921.2227304802883	-908.6140731321091	816.113952509765	989.5546158512558	-737.5121981333075	858.0916119894501	986.0633512128194	-740.8126333159047	673.5059940722613	992.8788153238053	-843.2278257515904	979.8853017493117	1004.99102889547	-846.7053875356804	655.8715103660941	822.5220097847355	-798.7045018177575	736.2013271874426	656.8101924683976	-859.7307871422441	682.7177253705141	614.7416978210057	-767.7707006684155	697.491819780854	487.8891029649953	-719.871922488323	nan	nan	nan	764.1325526308425	378.4225472643203	-725.9512318868354	708.887255258133	307.7633907001783	-613.7475828313834	777.0694972972514	223.3453126151151	-627.528384173571	755.9191070945685	144.8694378144818	-535.5862237466885	nan	nan	nan	774.3200956160616	60.77188873974676	-658.6994332146663	735.4081364478569	41.9624171177611	-629.595524577598	811.8050584849822	145.723572755936	-453.7884702323931	994.482072091674	814.5443548729627	-855.8481390942253	905.7541631287866	703.434047529938	-990.3876226557347	962.613666333601	616.1908440988467	-942.789901193183	937.8130179971732	504.0791349263312	-954.3896023981313	nan	nan	nan	898.247480658069	402.3327107732542	-957.2924149381164	956.8418327785409	368.8952230401282	-821.4888298531387	907.5415894191357	276.6107214893258	-800.6529120021563	940.1100208921273	238.0513630097227	-698.2274101793555	nan	nan	nan	936.9577362833166	110.4380756742324	-772.8755473915556	974.3254793601931	100.9878887548273	-737.0024423509325	886.3162098982018	271.2848719389297	-624.2056615040369	
630	142.512	806.812309596027	1422.075493895414	-813.3855460038611	825.006688618798	1167.858075252695	-757.0128198786185	817.4769093388577	1308.515714183952	-952.4295220593325	642.5219163696709	1393.521750170816	-870.4136436893523	967.9224072289041	1397.623655584655	-872.0036006806318	708.4393718495342	930.1682710542798	-878.9579417839462	915.0072172279548	924.5329934793338	-908.8572580222857	815.9246414412776	992.3748855880605	-737.9762415447499	857.9388836863764	989.1061743474543	-741.1553828466853	673.6276147838458	995.4970908626354	-844.4276695625485	979.8451680847098	1008.538367403712	-846.9771571340526	656.0687004946356	824.8559643891984	-797.7467881589553	736.3381490249209	658.3145640146773	-855.8425898667006	682.4322257557172	617.9590244657458	-763.0223952053999	696.9744710308798	492.0718355507584	-712.3024354470481	nan	nan	nan	763.1831189107779	382.2807492021046	-717.9737278472006	708.2639023592616	312.0526249746732	-605.3511786082613	776.0211787967233	227.0650412133836	-619.7613706248127	755.2124352072741	148.6533547652308	-527.6631403294897	nan	nan	nan	773.9806618547232	61.11760903626009	-648.9079645540164	735.2054712154619	42.49070050485152	-619.344530510527	811.0674785654464	151.3281778829362	-446.3962653056402	994.8989393023364	818.8001205532413	-856.8722906902038	905.7297732751247	708.4841794621685	-991.2958804070548	962.9075669103014	620.5556191065268	-944.5580000587278	938.0730055157449	507.9176605791713	-956.5650070718781	nan	nan	nan	898.6788125622828	405.9671796592577	-962.2085612851805	957.0605340911012	367.9384304160642	-827.4008424550173	907.5097442745605	275.075683793254	-809.6656794801827	939.8121860518449	232.9785817791381	-708.4500642640529	nan	nan	nan	936.638431364732	108.0314423996583	-787.6097668982836	973.9115646276368	97.23720830729758	-752.007930488194	885.9317198189267	263.6761017880189	-633.3202763909104	
